<svg width="54" height="54" viewBox="0 0 54 54" fill="none" xmlns="http://www.w3.org/2000/svg">
<path d="M27 50.625C20.7343 50.625 14.7251 48.1359 10.2946 43.7054C5.86406 39.2748 3.375 33.2657 3.375 27C3.375 20.7343 5.86406 14.7251 10.2946 10.2946C14.7251 5.86406 20.7343 3.375 27 3.375C33.2657 3.375 39.2748 5.86406 43.7054 10.2946C48.1359 14.7251 50.625 20.7343 50.625 27C50.625 33.2657 48.1359 39.2748 43.7054 43.7054C39.2748 48.1359 33.2657 50.625 27 50.625ZM27 54C34.1608 54 41.0284 51.1554 46.0919 46.0919C51.1554 41.0284 54 34.1608 54 27C54 19.8392 51.1554 12.9716 46.0919 7.90812C41.0284 2.84464 34.1608 0 27 0C19.8392 0 12.9716 2.84464 7.90812 7.90812C2.84464 12.9716 0 19.8392 0 27C0 34.1608 2.84464 41.0284 7.90812 46.0919C12.9716 51.1554 19.8392 54 27 54V54Z" fill="black"/>
<path d="M30.1386 22.2345L22.4098 23.2031L22.1331 24.4856L23.6518 24.7657C24.6441 25.002 24.8398 25.3598 24.6238 26.3486L22.1331 38.0531C21.4783 41.0805 22.4875 42.5047 24.8601 42.5047C26.6995 42.5047 28.8358 41.6543 29.8045 40.4865L30.1015 39.0825C29.4265 39.6765 28.441 39.9128 27.7862 39.9128C26.8581 39.9128 26.5206 39.2614 26.7602 38.1139L30.1386 22.2345ZM30.3748 15.1875C30.3748 16.0826 30.0193 16.941 29.3863 17.574C28.7534 18.2069 27.8949 18.5625 26.9998 18.5625C26.1047 18.5625 25.2463 18.2069 24.6134 17.574C23.9804 16.941 23.6248 16.0826 23.6248 15.1875C23.6248 14.2924 23.9804 13.4339 24.6134 12.801C25.2463 12.1681 26.1047 11.8125 26.9998 11.8125C27.8949 11.8125 28.7534 12.1681 29.3863 12.801C30.0193 13.4339 30.3748 14.2924 30.3748 15.1875Z" fill="black"/>
</svg>
